<?xml version="1.0" encoding="utf-8" standalone="no"?>
<!DOCTYPE svg PUBLIC "-//W3C//DTD SVG 1.1//EN"
  "http://www.w3.org/Graphics/SVG/1.1/DTD/svg11.dtd">
<svg xmlns:xlink="http://www.w3.org/1999/xlink" width="107.759512pt" height="81.11952pt" viewBox="0 0 107.759512 81.11952" xmlns="http://www.w3.org/2000/svg" version="1.1">
 <metadata>
  <rdf:RDF xmlns:dc="http://purl.org/dc/elements/1.1/" xmlns:cc="http://creativecommons.org/ns#" xmlns:rdf="http://www.w3.org/1999/02/22-rdf-syntax-ns#">
   <cc:Work>
    <dc:type rdf:resource="http://purl.org/dc/dcmitype/StillImage"/>
    <dc:date>2026-06-07T22:17:28.523235</dc:date>
    <dc:format>image/svg+xml</dc:format>
    <dc:creator>
     <cc:Agent>
      <dc:title>Matplotlib v3.5.1, https://matplotlib.org/</dc:title>
     </cc:Agent>
    </dc:creator>
   </cc:Work>
  </rdf:RDF>
 </metadata>
 <defs>
  <style type="text/css">*{stroke-linejoin: round; stroke-linecap: butt}</style>
 </defs>
 <g id="figure_1">
  <g id="patch_1">
   <path d="M 0 81.11952 
L 107.759512 81.11952 
L 107.759512 0 
L 0 0 
z
" style="fill: #ffffff"/>
  </g>
  <g id="axes_1">
   <g id="patch_2">
    <path d="M 24.43 62.29952 
L 104.086365 62.29952 
L 104.086365 1.08 
L 24.43 1.08 
z
" style="fill: #ffffff"/>
   </g>
   <g id="matplotlib.axis_1">
    <g id="xtick_1">
     <g id="line2d_1">
      <path d="M 25.961853 62.29952 
L 25.961853 1.08 
" clip-path="url(#p0dc8171059)" style="fill: none; stroke-dasharray: 0.3,0.66; stroke-dashoffset: 0; stroke: #e8e8e8; stroke-opacity: 0.5; stroke-width: 0.3"/>
     </g>
     <g id="line2d_2">
      <defs>
       <path id="mc5c000ab14" d="M 0 0 
L 0 -2.4 
" style="stroke: #303030; stroke-width: 0.65"/>
      </defs>
      <g>
       <use xlink:href="#mc5c000ab14" x="25.961853" y="62.29952" style="fill: #303030; stroke: #303030; stroke-width: 0.65"/>
      </g>
     </g>
     <g id="text_1">
      <text style="font: 6.6px 'serif'; text-anchor: middle" x="25.961853" y="68.307114" transform="rotate(-0, 25.961853, 68.307114)">0.0</text>
     </g>
    </g>
    <g id="xtick_2">
     <g id="line2d_3">
      <path d="M 64.258183 62.29952 
L 64.258183 1.08 
" clip-path="url(#p0dc8171059)" style="fill: none; stroke-dasharray: 0.3,0.66; stroke-dashoffset: 0; stroke: #e8e8e8; stroke-opacity: 0.5; stroke-width: 0.3"/>
     </g>
     <g id="line2d_4">
      <g>
       <use xlink:href="#mc5c000ab14" x="64.258183" y="62.29952" style="fill: #303030; stroke: #303030; stroke-width: 0.65"/>
      </g>
     </g>
     <g id="text_2">
      <text style="font: 6.6px 'serif'; text-anchor: middle" x="64.258183" y="68.307114" transform="rotate(-0, 64.258183, 68.307114)">0.5</text>
     </g>
    </g>
    <g id="xtick_3">
     <g id="line2d_5">
      <path d="M 102.554512 62.29952 
L 102.554512 1.08 
" clip-path="url(#p0dc8171059)" style="fill: none; stroke-dasharray: 0.3,0.66; stroke-dashoffset: 0; stroke: #e8e8e8; stroke-opacity: 0.5; stroke-width: 0.3"/>
     </g>
     <g id="line2d_6">
      <g>
       <use xlink:href="#mc5c000ab14" x="102.554512" y="62.29952" style="fill: #303030; stroke: #303030; stroke-width: 0.65"/>
      </g>
     </g>
     <g id="text_3">
      <text style="font: 6.6px 'serif'; text-anchor: middle" x="102.554512" y="68.307114" transform="rotate(-0, 102.554512, 68.307114)">1.0</text>
     </g>
    </g>
    <g id="text_4">
     <text style="font: 7px 'serif'; text-anchor: middle" x="64.258183" y="78.520301" transform="rotate(-0, 64.258183, 78.520301)">ADP</text>
    </g>
   </g>
   <g id="matplotlib.axis_2">
    <g id="ytick_1">
     <g id="line2d_7">
      <path d="M 24.43 48.470265 
L 104.086365 48.470265 
" clip-path="url(#p0dc8171059)" style="fill: none; stroke-dasharray: 0.35,0.7; stroke-dashoffset: 0; stroke: #d9d9d9; stroke-opacity: 0.6; stroke-width: 0.35"/>
     </g>
     <g id="line2d_8">
      <defs>
       <path id="mff9a598827" d="M 0 0 
L 2.4 0 
" style="stroke: #303030; stroke-width: 0.65"/>
      </defs>
      <g>
       <use xlink:href="#mff9a598827" x="24.43" y="48.470265" style="fill: #303030; stroke: #303030; stroke-width: 0.65"/>
      </g>
     </g>
     <g id="text_5">
      <text style="font: 6.6px 'serif'; text-anchor: end" x="22.93" y="50.724062" transform="rotate(-0, 22.93, 50.724062)">0.60</text>
     </g>
    </g>
    <g id="ytick_2">
     <g id="line2d_9">
      <path d="M 24.43 27.849351 
L 104.086365 27.849351 
" clip-path="url(#p0dc8171059)" style="fill: none; stroke-dasharray: 0.35,0.7; stroke-dashoffset: 0; stroke: #d9d9d9; stroke-opacity: 0.6; stroke-width: 0.35"/>
     </g>
     <g id="line2d_10">
      <g>
       <use xlink:href="#mff9a598827" x="24.43" y="27.849351" style="fill: #303030; stroke: #303030; stroke-width: 0.65"/>
      </g>
     </g>
     <g id="text_6">
      <text style="font: 6.6px 'serif'; text-anchor: end" x="22.93" y="30.103148" transform="rotate(-0, 22.93, 30.103148)">0.75</text>
     </g>
    </g>
    <g id="ytick_3">
     <g id="line2d_11">
      <path d="M 24.43 7.228438 
L 104.086365 7.228438 
" clip-path="url(#p0dc8171059)" style="fill: none; stroke-dasharray: 0.35,0.7; stroke-dashoffset: 0; stroke: #d9d9d9; stroke-opacity: 0.6; stroke-width: 0.35"/>
     </g>
     <g id="line2d_12">
      <g>
       <use xlink:href="#mff9a598827" x="24.43" y="7.228438" style="fill: #303030; stroke: #303030; stroke-width: 0.65"/>
      </g>
     </g>
     <g id="text_7">
      <text style="font: 6.6px 'serif'; text-anchor: end" x="22.93" y="9.482234" transform="rotate(-0, 22.93, 9.482234)">0.90</text>
     </g>
    </g>
    <g id="text_8">
     <text style="font: 7px 'serif'; text-anchor: middle" x="5.860781" y="31.68976" transform="rotate(-90, 5.860781, 31.68976)">Acc.</text>
    </g>
   </g>
   <g id="patch_3">
    <path d="M 24.43 62.29952 
L 24.43 1.08 
" style="fill: none; stroke: #303030; stroke-width: 0.65; stroke-linejoin: miter; stroke-linecap: square"/>
   </g>
   <g id="patch_4">
    <path d="M 24.43 62.29952 
L 104.086365 62.29952 
" style="fill: none; stroke: #303030; stroke-width: 0.65; stroke-linejoin: miter; stroke-linecap: square"/>
   </g>
   <g id="line2d_13">
    <path d="M 25.961853 16.157514 
L 29.791486 16.185527 
L 33.621119 16.409629 
L 37.450752 16.633731 
L 41.280385 16.843827 
L 45.110018 17.179981 
L 48.939651 17.488121 
L 52.769284 18.188441 
L 56.598917 18.762703 
L 60.42855 19.813183 
L 64.258183 20.947701 
L 68.087815 22.040199 
L 71.917448 23.440839 
L 75.747081 25.135612 
L 79.576714 26.634297 
L 83.406347 29.22548 
L 87.23598 32.853136 
L 91.065613 37.181111 
L 94.895246 42.167388 
L 98.724879 48.106099 
L 102.554512 53.764682 
" clip-path="url(#p0dc8171059)" style="fill: none; stroke: #0072b2; stroke-width: 1.25; stroke-linecap: square"/>
    <defs>
     <path id="mb1dd038bbd" d="M 0 1.125 
C 0.298353 1.125 0.584527 1.006463 0.795495 0.795495 
C 1.006463 0.584527 1.125 0.298353 1.125 0 
C 1.125 -0.298353 1.006463 -0.584527 0.795495 -0.795495 
C 0.584527 -1.006463 0.298353 -1.125 0 -1.125 
C -0.298353 -1.125 -0.584527 -1.006463 -0.795495 -0.795495 
C -1.006463 -0.584527 -1.125 -0.298353 -1.125 0 
C -1.125 0.298353 -1.006463 0.584527 -0.795495 0.795495 
C -0.584527 1.006463 -0.298353 1.125 0 1.125 
z
" style="stroke: #0072b2; stroke-width: 0.65"/>
    </defs>
    <g clip-path="url(#p0dc8171059)">
     <use xlink:href="#mb1dd038bbd" x="25.961853" y="16.157514" style="fill: #ffffff; stroke: #0072b2; stroke-width: 0.65"/>
     <use xlink:href="#mb1dd038bbd" x="33.621119" y="16.409629" style="fill: #ffffff; stroke: #0072b2; stroke-width: 0.65"/>
     <use xlink:href="#mb1dd038bbd" x="41.280385" y="16.843827" style="fill: #ffffff; stroke: #0072b2; stroke-width: 0.65"/>
     <use xlink:href="#mb1dd038bbd" x="48.939651" y="17.488121" style="fill: #ffffff; stroke: #0072b2; stroke-width: 0.65"/>
     <use xlink:href="#mb1dd038bbd" x="56.598917" y="18.762703" style="fill: #ffffff; stroke: #0072b2; stroke-width: 0.65"/>
     <use xlink:href="#mb1dd038bbd" x="64.258183" y="20.947701" style="fill: #ffffff; stroke: #0072b2; stroke-width: 0.65"/>
     <use xlink:href="#mb1dd038bbd" x="71.917448" y="23.440839" style="fill: #ffffff; stroke: #0072b2; stroke-width: 0.65"/>
     <use xlink:href="#mb1dd038bbd" x="79.576714" y="26.634297" style="fill: #ffffff; stroke: #0072b2; stroke-width: 0.65"/>
     <use xlink:href="#mb1dd038bbd" x="87.23598" y="32.853136" style="fill: #ffffff; stroke: #0072b2; stroke-width: 0.65"/>
     <use xlink:href="#mb1dd038bbd" x="94.895246" y="42.167388" style="fill: #ffffff; stroke: #0072b2; stroke-width: 0.65"/>
     <use xlink:href="#mb1dd038bbd" x="102.554512" y="53.764682" style="fill: #ffffff; stroke: #0072b2; stroke-width: 0.65"/>
    </g>
   </g>
   <g id="line2d_14">
    <path d="M 25.961853 6.138822 
L 29.791486 6.541451 
L 33.621119 6.667273 
L 37.450752 6.793095 
L 41.280385 6.76793 
L 45.110018 7.095067 
L 48.939651 7.623518 
L 52.769284 8.051311 
L 56.598917 8.353283 
L 60.42855 9.007556 
L 64.258183 10.114787 
L 68.087815 11.775633 
L 71.917448 13.662958 
L 75.747081 14.770189 
L 79.576714 16.582021 
L 83.406347 18.49451 
L 87.23598 21.33808 
L 91.065613 24.231978 
L 94.895246 27.654328 
L 98.724879 30.372076 
L 102.554512 33.265974 
" clip-path="url(#p0dc8171059)" style="fill: none; stroke-dasharray: 4.625,2; stroke-dashoffset: 0; stroke: #d55e00; stroke-width: 1.25"/>
    <defs>
     <path id="m5c8606ac2c" d="M -1.125 1.125 
L 1.125 1.125 
L 1.125 -1.125 
L -1.125 -1.125 
z
" style="stroke: #d55e00; stroke-width: 0.65; stroke-linejoin: miter"/>
    </defs>
    <g clip-path="url(#p0dc8171059)">
     <use xlink:href="#m5c8606ac2c" x="25.961853" y="6.138822" style="fill: #ffffff; stroke: #d55e00; stroke-width: 0.65; stroke-linejoin: miter"/>
     <use xlink:href="#m5c8606ac2c" x="33.621119" y="6.667273" style="fill: #ffffff; stroke: #d55e00; stroke-width: 0.65; stroke-linejoin: miter"/>
     <use xlink:href="#m5c8606ac2c" x="41.280385" y="6.76793" style="fill: #ffffff; stroke: #d55e00; stroke-width: 0.65; stroke-linejoin: miter"/>
     <use xlink:href="#m5c8606ac2c" x="48.939651" y="7.623518" style="fill: #ffffff; stroke: #d55e00; stroke-width: 0.65; stroke-linejoin: miter"/>
     <use xlink:href="#m5c8606ac2c" x="56.598917" y="8.353283" style="fill: #ffffff; stroke: #d55e00; stroke-width: 0.65; stroke-linejoin: miter"/>
     <use xlink:href="#m5c8606ac2c" x="64.258183" y="10.114787" style="fill: #ffffff; stroke: #d55e00; stroke-width: 0.65; stroke-linejoin: miter"/>
     <use xlink:href="#m5c8606ac2c" x="71.917448" y="13.662958" style="fill: #ffffff; stroke: #d55e00; stroke-width: 0.65; stroke-linejoin: miter"/>
     <use xlink:href="#m5c8606ac2c" x="79.576714" y="16.582021" style="fill: #ffffff; stroke: #d55e00; stroke-width: 0.65; stroke-linejoin: miter"/>
     <use xlink:href="#m5c8606ac2c" x="87.23598" y="21.33808" style="fill: #ffffff; stroke: #d55e00; stroke-width: 0.65; stroke-linejoin: miter"/>
     <use xlink:href="#m5c8606ac2c" x="94.895246" y="27.654328" style="fill: #ffffff; stroke: #d55e00; stroke-width: 0.65; stroke-linejoin: miter"/>
     <use xlink:href="#m5c8606ac2c" x="102.554512" y="33.265974" style="fill: #ffffff; stroke: #d55e00; stroke-width: 0.65; stroke-linejoin: miter"/>
    </g>
   </g>
   <g id="line2d_15">
    <path d="M 25.961853 6.381771 
L 29.791486 6.548384 
L 33.621119 6.585787 
L 37.450752 6.830606 
L 41.280385 7.078826 
L 45.110018 7.350847 
L 48.939651 7.660271 
L 52.769284 8.088705 
L 56.598917 8.564742 
L 60.42855 9.071382 
L 64.258183 9.669829 
L 68.087815 10.5777 
L 71.917448 11.373362 
L 75.747081 12.379841 
L 79.576714 13.454325 
L 83.406347 14.681821 
L 87.23598 16.279946 
L 91.065613 18.411913 
L 94.895246 20.982514 
L 98.724879 24.943824 
L 102.554512 27.514425 
" clip-path="url(#p0dc8171059)" style="fill: none; stroke-dasharray: 8,2,1.25,2; stroke-dashoffset: 0; stroke: #009e73; stroke-width: 1.25"/>
    <defs>
     <path id="m2b88f5d026" d="M 0 -1.125 
L -1.125 1.125 
L 1.125 1.125 
z
" style="stroke: #009e73; stroke-width: 0.65; stroke-linejoin: miter"/>
    </defs>
    <g clip-path="url(#p0dc8171059)">
     <use xlink:href="#m2b88f5d026" x="25.961853" y="6.381771" style="fill: #ffffff; stroke: #009e73; stroke-width: 0.65; stroke-linejoin: miter"/>
     <use xlink:href="#m2b88f5d026" x="33.621119" y="6.585787" style="fill: #ffffff; stroke: #009e73; stroke-width: 0.65; stroke-linejoin: miter"/>
     <use xlink:href="#m2b88f5d026" x="41.280385" y="7.078826" style="fill: #ffffff; stroke: #009e73; stroke-width: 0.65; stroke-linejoin: miter"/>
     <use xlink:href="#m2b88f5d026" x="48.939651" y="7.660271" style="fill: #ffffff; stroke: #009e73; stroke-width: 0.65; stroke-linejoin: miter"/>
     <use xlink:href="#m2b88f5d026" x="56.598917" y="8.564742" style="fill: #ffffff; stroke: #009e73; stroke-width: 0.65; stroke-linejoin: miter"/>
     <use xlink:href="#m2b88f5d026" x="64.258183" y="9.669829" style="fill: #ffffff; stroke: #009e73; stroke-width: 0.65; stroke-linejoin: miter"/>
     <use xlink:href="#m2b88f5d026" x="71.917448" y="11.373362" style="fill: #ffffff; stroke: #009e73; stroke-width: 0.65; stroke-linejoin: miter"/>
     <use xlink:href="#m2b88f5d026" x="79.576714" y="13.454325" style="fill: #ffffff; stroke: #009e73; stroke-width: 0.65; stroke-linejoin: miter"/>
     <use xlink:href="#m2b88f5d026" x="87.23598" y="16.279946" style="fill: #ffffff; stroke: #009e73; stroke-width: 0.65; stroke-linejoin: miter"/>
     <use xlink:href="#m2b88f5d026" x="94.895246" y="20.982514" style="fill: #ffffff; stroke: #009e73; stroke-width: 0.65; stroke-linejoin: miter"/>
     <use xlink:href="#m2b88f5d026" x="102.554512" y="27.514425" style="fill: #ffffff; stroke: #009e73; stroke-width: 0.65; stroke-linejoin: miter"/>
    </g>
   </g>
   <g id="line2d_16">
    <path d="M 25.961853 4.516819 
L 29.791486 5.147428 
L 33.621119 5.30508 
L 37.450752 5.620385 
L 41.280385 5.935689 
L 45.110018 5.778037 
L 48.939651 6.566298 
L 52.769284 6.566298 
L 56.598917 6.408646 
L 60.42855 6.566298 
L 64.258183 6.72395 
L 68.087815 7.196907 
L 71.917448 7.669864 
L 75.747081 8.142821 
L 79.576714 8.77343 
L 83.406347 10.665257 
L 87.23598 11.926474 
L 91.065613 16.025433 
L 94.895246 25.169263 
L 98.724879 43.141619 
L 102.554512 57.487973 
" clip-path="url(#p0dc8171059)" style="fill: none; stroke-dasharray: 1.25,2.0625; stroke-dashoffset: 0; stroke: #cc79a7; stroke-width: 1.25"/>
    <defs>
     <path id="m6472d1d74c" d="M -0 1.59099 
L 1.59099 0 
L 0 -1.59099 
L -1.59099 -0 
z
" style="stroke: #cc79a7; stroke-width: 0.65; stroke-linejoin: miter"/>
    </defs>
    <g clip-path="url(#p0dc8171059)">
     <use xlink:href="#m6472d1d74c" x="25.961853" y="4.516819" style="fill: #ffffff; stroke: #cc79a7; stroke-width: 0.65; stroke-linejoin: miter"/>
     <use xlink:href="#m6472d1d74c" x="33.621119" y="5.30508" style="fill: #ffffff; stroke: #cc79a7; stroke-width: 0.65; stroke-linejoin: miter"/>
     <use xlink:href="#m6472d1d74c" x="41.280385" y="5.935689" style="fill: #ffffff; stroke: #cc79a7; stroke-width: 0.65; stroke-linejoin: miter"/>
     <use xlink:href="#m6472d1d74c" x="48.939651" y="6.566298" style="fill: #ffffff; stroke: #cc79a7; stroke-width: 0.65; stroke-linejoin: miter"/>
     <use xlink:href="#m6472d1d74c" x="56.598917" y="6.408646" style="fill: #ffffff; stroke: #cc79a7; stroke-width: 0.65; stroke-linejoin: miter"/>
     <use xlink:href="#m6472d1d74c" x="64.258183" y="6.72395" style="fill: #ffffff; stroke: #cc79a7; stroke-width: 0.65; stroke-linejoin: miter"/>
     <use xlink:href="#m6472d1d74c" x="71.917448" y="7.669864" style="fill: #ffffff; stroke: #cc79a7; stroke-width: 0.65; stroke-linejoin: miter"/>
     <use xlink:href="#m6472d1d74c" x="79.576714" y="8.77343" style="fill: #ffffff; stroke: #cc79a7; stroke-width: 0.65; stroke-linejoin: miter"/>
     <use xlink:href="#m6472d1d74c" x="87.23598" y="11.926474" style="fill: #ffffff; stroke: #cc79a7; stroke-width: 0.65; stroke-linejoin: miter"/>
     <use xlink:href="#m6472d1d74c" x="94.895246" y="25.169263" style="fill: #ffffff; stroke: #cc79a7; stroke-width: 0.65; stroke-linejoin: miter"/>
     <use xlink:href="#m6472d1d74c" x="102.554512" y="57.487973" style="fill: #ffffff; stroke: #cc79a7; stroke-width: 0.65; stroke-linejoin: miter"/>
    </g>
   </g>
   <g id="legend_1">
    <g id="line2d_17">
     <path d="M 27.654 48.944332 
L 31.529 48.944332 
L 35.404 48.944332 
" style="fill: none; stroke: #0072b2; stroke-width: 1.25; stroke-linecap: square"/>
     <g>
      <use xlink:href="#mb1dd038bbd" x="31.529" y="48.944332" style="fill: #ffffff; stroke: #0072b2; stroke-width: 0.65"/>
     </g>
    </g>
    <g id="text_9">
     <text style="font: 6.2px 'serif'; text-anchor: start" x="36.954" y="51.114332" transform="rotate(-0, 36.954, 51.114332)">MNLI</text>
    </g>
    <g id="line2d_18">
     <path d="M 27.654 55.559926 
L 31.529 55.559926 
L 35.404 55.559926 
" style="fill: none; stroke-dasharray: 4.625,2; stroke-dashoffset: 0; stroke: #d55e00; stroke-width: 1.25"/>
     <g>
      <use xlink:href="#m5c8606ac2c" x="31.529" y="55.559926" style="fill: #ffffff; stroke: #d55e00; stroke-width: 0.65; stroke-linejoin: miter"/>
     </g>
    </g>
    <g id="text_10">
     <text style="font: 6.2px 'serif'; text-anchor: start" x="36.954" y="57.729926" transform="rotate(-0, 36.954, 57.729926)">QNLI</text>
    </g>
    <g id="line2d_19">
     <path d="M 55.585 48.944332 
L 59.46 48.944332 
L 63.335 48.944332 
" style="fill: none; stroke-dasharray: 8,2,1.25,2; stroke-dashoffset: 0; stroke: #009e73; stroke-width: 1.25"/>
     <g>
      <use xlink:href="#m2b88f5d026" x="59.46" y="48.944332" style="fill: #ffffff; stroke: #009e73; stroke-width: 0.65; stroke-linejoin: miter"/>
     </g>
    </g>
    <g id="text_11">
     <text style="font: 6.2px 'serif'; text-anchor: start" x="64.885" y="51.114332" transform="rotate(-0, 64.885, 51.114332)">QQP</text>
    </g>
    <g id="line2d_20">
     <path d="M 55.585 55.559926 
L 59.46 55.559926 
L 63.335 55.559926 
" style="fill: none; stroke-dasharray: 1.25,2.0625; stroke-dashoffset: 0; stroke: #cc79a7; stroke-width: 1.25"/>
     <g>
      <use xlink:href="#m6472d1d74c" x="59.46" y="55.559926" style="fill: #ffffff; stroke: #cc79a7; stroke-width: 0.65; stroke-linejoin: miter"/>
     </g>
    </g>
    <g id="text_12">
     <text style="font: 6.2px 'serif'; text-anchor: start" x="64.885" y="57.729926" transform="rotate(-0, 64.885, 57.729926)">SST-2</text>
    </g>
   </g>
  </g>
 </g>
 <defs>
  <clipPath id="p0dc8171059">
   <rect x="24.43" y="1.08" width="79.656365" height="61.21952"/>
  </clipPath>
 </defs>
</svg>
